<svg width="22" height="23" viewBox="0 0 22 23" fill="none" xmlns="http://www.w3.org/2000/svg">
<g clip-path="url(#clip0_118_77369)">
<path d="M1.22217 18.8334C1.22217 19.4817 1.47971 20.1034 1.93813 20.5619C2.39655 21.0203 3.01831 21.2778 3.66661 21.2778H18.3333C18.9816 21.2778 19.6033 21.0203 20.0618 20.5619C20.5202 20.1034 20.7777 19.4817 20.7777 18.8334V4.16672C20.7777 3.51841 20.5202 2.89666 20.0618 2.43824C19.6033 1.97981 18.9816 1.72227 18.3333 1.72227H3.66661C3.01831 1.72227 2.39655 1.97981 1.93813 2.43824C1.47971 2.89666 1.22217 3.51841 1.22217 4.16672V18.8334Z" stroke="#1890FF" stroke-width="2" stroke-linecap="round" stroke-linejoin="round"/>
<path d="M7.33325 21.2778V1.72227" stroke="#1890FF" stroke-width="2" stroke-linecap="round" stroke-linejoin="round"/>
<path d="M12.2223 13.9445L14.6667 11.5L12.2223 9.05557" stroke="#1890FF" stroke-width="2" stroke-linecap="round" stroke-linejoin="round"/>
</g>
<defs>
<clipPath id="clip0_118_77369">
<rect width="22" height="22" fill="white" transform="matrix(1 0 0 -1 0 22.5)"/>
</clipPath>
</defs>
</svg>
